<svg xmlns="http://www.w3.org/2000/svg" width="150" height="150" viewBox="0 0 150 150" fill="none"><path fill-rule="evenodd" clip-rule="evenodd" d="M120.209 106.322C120.577 105.297 121.707 104.765 122.733 105.132C123.758 105.5 124.291 106.63 123.923 107.655C122.181 112.508 119.091 116.745 114.987 119.908L114.976 119.916C110.23 123.569 104.55 125.5 98.5486 125.5C92.5471 125.5 86.8671 123.569 82.1215 119.916L82.1096 119.908C75.4282 114.758 71.5962 106.973 71.5962 98.5474C71.5962 95.5979 72.0724 92.7575 72.952 90.0989L65.6433 86.3138C61.7773 92.7861 54.7015 97.1295 46.6304 97.1295C34.4282 97.1295 24.501 87.2021 24.501 75C24.501 62.7979 34.4284 52.8705 46.6304 52.8705C51.2153 52.8705 55.4788 54.2721 59.0154 56.6691L66.4087 50.7586C64.7268 48.1109 63.7519 44.9722 63.7519 41.61C63.7519 32.1756 71.4273 24.5 80.8619 24.5C90.2965 24.5 97.9714 32.1756 97.9714 41.61C97.9714 51.0445 90.296 58.7201 80.8615 58.7201C76.2063 58.7201 71.9793 56.8512 68.8913 53.8243L62.1353 59.2255C66.2217 63.2426 68.7595 68.8305 68.7595 74.9998C68.7595 77.7282 68.2632 80.3425 67.3561 82.7579L74.4697 86.442C78.9114 77.642 88.0367 71.5928 98.5482 71.5928C104.02 71.5928 109.289 73.2238 113.784 76.31C118.172 79.3225 121.544 83.513 123.536 88.4289C123.946 89.4385 123.459 90.5887 122.449 90.9978C121.439 91.4076 120.289 90.9199 119.88 89.9105C116.342 81.1797 107.969 75.5381 98.5482 75.5381C85.862 75.5381 75.5411 85.8603 75.5411 98.5474C75.5411 104.572 77.8371 110.214 81.9356 114.471C83.1506 110.864 86.1171 108.056 89.819 107.062C87.4857 104.788 86.0348 101.612 86.0348 98.1041C86.0348 91.204 91.6484 85.5904 98.5484 85.5904C105.449 85.5904 111.062 91.204 111.062 98.1041C111.062 101.612 109.611 104.788 107.278 107.062C110.979 108.055 113.945 110.862 115.16 114.468C117.392 112.142 119.114 109.375 120.209 106.322ZM94.0264 41.61C94.0264 34.3511 88.1209 28.4453 80.8619 28.4453C73.6029 28.4453 67.6972 34.3511 67.6972 41.61C67.6972 48.869 73.6027 54.7747 80.8619 54.7747C88.1207 54.7747 94.0264 48.869 94.0264 41.61ZM28.4463 75C28.4463 85.0266 36.6038 93.1841 46.6304 93.1841C56.657 93.1841 64.8146 85.0266 64.8146 75C64.8146 64.9734 56.657 56.8159 46.6304 56.8159C36.6038 56.8159 28.4463 64.9734 28.4463 75ZM107.117 98.1043C107.117 93.3796 103.273 89.5359 98.5486 89.5359C93.8239 89.5359 89.9803 93.3796 89.9803 98.1043C89.9803 102.829 93.8239 106.673 98.5486 106.673C103.273 106.673 107.117 102.829 107.117 98.1043ZM85.3227 117.376C89.2053 120.113 93.7566 121.555 98.5486 121.555C103.341 121.555 107.892 120.113 111.774 117.376C111.402 113.587 108.198 110.618 104.313 110.618H92.7837C88.8991 110.618 85.6949 113.587 85.3227 117.376ZM46.6308 87.5205C39.7271 87.5205 34.1104 81.9037 34.1104 75C34.1104 68.0963 39.7271 62.4796 46.6308 62.4796C53.5345 62.4796 59.1513 68.0963 59.1513 75C59.1513 81.9037 53.5345 87.5205 46.6308 87.5205ZM46.6308 66.4249C41.9023 66.4249 38.0557 70.2715 38.0557 75C38.0557 79.7285 41.9023 83.5751 46.6308 83.5751C51.3593 83.5751 55.2059 79.7285 55.2059 75C55.2059 70.2715 51.3593 66.4249 46.6308 66.4249ZM123.526 100.053C122.69 100.053 121.929 99.5028 121.66 98.7133C121.399 97.9473 121.647 97.0675 122.275 96.5556C122.926 96.025 123.854 95.9656 124.568 96.4061C125.257 96.8312 125.622 97.6708 125.461 98.4648C125.277 99.3754 124.458 100.053 123.526 100.053Z" fill="#E0E0E0"></path></svg>