<svg width="18" height="14" viewBox="0 0 18 14" fill="none" xmlns="http://www.w3.org/2000/svg">
<path fill-rule="evenodd" clip-rule="evenodd" d="M5.99185 10.6497C4.23398 10.5915 3.13968 9.32255 2.84865 8.2981C3.33759 8.39123 3.81489 8.36795 4.30383 8.25153C4.31547 8.25153 4.32712 8.25153 4.3504 8.22825C3.3958 8.00706 2.66238 7.49484 2.15016 6.67993C1.81255 6.13278 1.64957 5.53907 1.64957 4.8755C2.12687 5.13161 2.62746 5.27131 3.15132 5.28295C2.42955 4.77073 1.95225 4.09552 1.75434 3.23405C1.55644 2.37258 1.6845 1.55767 2.11523 0.777694C3.94295 2.93137 6.27125 4.1188 9.08849 4.31671C9.0652 4.18865 9.05356 4.0606 9.03028 3.94418C8.93715 3.15256 9.10013 2.4075 9.51922 1.7323C10.0547 0.882467 10.8231 0.358601 11.8126 0.207261C12.9535 0.0209972 13.943 0.346959 14.7695 1.15022C14.8277 1.20843 14.8743 1.22007 14.9442 1.20843C15.6426 1.05709 16.2946 0.812619 16.9116 0.451733C16.9232 0.451733 16.9465 0.440091 16.9581 0.428449H16.9814C16.7137 1.20843 16.2247 1.82543 15.5379 2.26781C16.1898 2.19796 16.8184 2.02333 17.4238 1.75558H17.4354C17.3074 1.94184 17.1793 2.11647 17.0513 2.27945C16.6904 2.72182 16.2829 3.10599 15.8173 3.4436C15.7823 3.46688 15.7591 3.5018 15.7591 3.54837C15.7823 4.04895 15.7591 4.54954 15.7009 5.05012C15.5728 6.09786 15.2818 7.09903 14.8277 8.06527C14.3621 9.0548 13.7567 9.95119 13 10.7312C11.7078 12.0583 10.1595 12.9198 8.35507 13.3272C7.73807 13.4669 7.10943 13.5368 6.46915 13.5484C4.51338 13.6066 2.72059 13.1177 1.05586 12.0932C1.03257 12.0816 1.00929 12.0699 0.974365 12.0467C2.15016 12.1747 3.27938 12.0234 4.36204 11.581C4.93247 11.3482 5.46798 11.0339 5.96857 10.638L5.99185 10.6497Z" fill="white"/>
</svg>
